<svg width="19" height="17" viewBox="0 0 19 17" fill="none" xmlns="http://www.w3.org/2000/svg">
<path fill-rule="evenodd" clip-rule="evenodd" d="M18.691 11.9376V11.0277C18.691 10.9424 18.6305 10.8856 18.4487 10.9709L13.8441 12.2219C13.8138 12.2219 13.8138 12.2219 13.7835 12.2503C13.3944 12.637 13.0573 12.9262 12.8764 13.0814C12.8179 13.1316 12.7758 13.1677 12.7535 13.1886C12.4809 13.4161 12.1174 13.5298 11.7538 13.5298H10.0877V11.9376H11.4206C11.4509 11.9376 11.4812 11.9376 11.5115 11.9091L11.6933 11.767C11.7841 11.7101 11.875 11.6248 11.9659 11.5395L11.9659 11.5395C12.028 11.5006 12.076 11.4485 12.1194 11.4012C12.1396 11.3793 12.1588 11.3585 12.178 11.3405C12.2401 11.3016 12.288 11.2495 12.3315 11.2022C12.3516 11.1803 12.3708 11.1595 12.39 11.1415C12.4354 11.0846 12.4885 11.0277 12.5415 10.9709C12.5945 10.914 12.6475 10.8571 12.6929 10.8003C12.7838 10.715 12.8444 10.6297 12.905 10.5444L12.905 10.5444C12.9353 10.5017 12.9732 10.4591 13.011 10.4164C13.0489 10.3738 13.0868 10.3311 13.117 10.2885C13.1383 10.2286 13.1745 10.1828 13.2151 10.1313C13.2324 10.1094 13.2504 10.0865 13.2685 10.061C13.3291 9.97573 13.3897 9.89043 13.42 9.83356L13.42 9.8335C13.5412 9.63449 13.6623 9.43549 13.7532 9.23648C13.7995 9.1496 13.8281 9.06273 13.8525 8.98852C13.8601 8.96559 13.8672 8.94386 13.8744 8.92372C13.8895 8.86686 13.9047 8.81711 13.9198 8.76735C13.935 8.7176 13.9501 8.66784 13.9653 8.61097C13.9668 8.5981 13.9683 8.58531 13.9698 8.57258C13.9985 8.33213 14.0243 8.11475 13.9956 7.87172C13.9956 7.78643 13.9956 7.70113 13.9653 7.64426C13.9653 7.61583 13.9653 7.55897 13.935 7.5021C13.9047 7.24621 13.8138 7.01875 13.6926 6.79129C13.6775 6.74864 13.6548 6.70599 13.632 6.66334C13.6093 6.6207 13.5866 6.57805 13.5714 6.5354C13.5109 6.4501 13.4578 6.3648 13.4048 6.2795C13.3518 6.19421 13.2988 6.10891 13.2382 6.02361C13.2192 5.97007 13.1883 5.92773 13.1604 5.88956C13.1438 5.86693 13.1283 5.84576 13.117 5.82459C13.0716 5.76772 13.0186 5.70375 12.9656 5.63978C12.9126 5.5758 12.8596 5.51183 12.8141 5.45496C12.7687 5.41232 12.7308 5.36256 12.6929 5.3128C12.6551 5.26305 12.6172 5.21329 12.5718 5.17064C12.5263 5.12799 12.4885 5.08534 12.4506 5.04269C12.4127 5.00005 12.3749 4.9574 12.3294 4.91475C12.0265 4.60199 11.7236 4.31766 11.4509 4.0902C11.4313 4.05348 11.3992 4.02862 11.3625 4.0003C11.3424 3.98476 11.3209 3.96819 11.2994 3.94804C11.0874 3.77745 10.8753 3.60686 10.7239 3.49313C10.633 3.43627 10.5724 3.37941 10.5118 3.32255L10.5118 3.32253C10.4209 3.26566 10.3603 3.2088 10.3301 3.18037C10.3301 3.15193 10.2998 3.15193 10.2998 3.15193L10.118 3.09507V1.73031C10.118 1.50285 10.0271 1.30382 9.87565 1.16166C9.72419 1.0195 9.51213 0.934204 9.26978 0.934204C8.81538 0.934204 8.42157 1.30382 8.42157 1.75874V2.69702L8.33069 2.66858L8.08834 2.61172L7.87629 2.55485L6.21015 2.12837C6.14956 2.09993 6.08898 2.18523 6.11927 2.24209L6.39191 2.69702L6.48279 2.86761C6.49794 2.91026 6.52066 2.95291 6.54338 2.99556C6.5661 3.03821 6.58882 3.08085 6.60396 3.1235C6.61911 3.16615 6.64183 3.20169 6.66455 3.23723C6.68727 3.27277 6.70999 3.30831 6.72514 3.35096C6.81602 3.52156 6.9069 3.72059 6.99778 3.91961L7.17954 4.3461C7.33101 4.68729 7.48247 5.08534 7.60365 5.4834C7.6544 5.57867 7.6839 5.69389 7.70994 5.79564C7.71499 5.81535 7.7199 5.83456 7.72482 5.85302L7.75511 5.90989C7.8157 6.10891 7.84599 6.27951 7.87629 6.47853C7.90658 6.59226 7.93688 6.73442 7.93688 6.84815C7.93688 6.91923 7.94445 6.99032 7.95202 7.0614C7.95959 7.13248 7.96717 7.20356 7.96717 7.27464C7.99746 7.4168 7.99746 7.55897 7.99746 7.6727C7.99746 8.01389 7.96717 8.32664 7.90658 8.61097L7.8157 8.86686C7.80442 8.89861 7.78895 8.93431 7.7724 8.97248C7.7445 9.03683 7.71354 9.10823 7.69453 9.17962C7.66424 9.26491 7.63395 9.32177 7.60366 9.37863L7.60365 9.37864C7.45218 9.71984 7.27042 10.0895 7.05836 10.4022C6.75543 10.8856 6.48279 11.2836 6.27074 11.5679C6.24044 11.6248 6.21015 11.6532 6.17986 11.6817C6.11927 11.767 6.17986 11.8807 6.30103 11.8807H8.45186V13.4729H6.27074C5.69516 13.4729 5.14988 13.1886 4.87724 12.6768C4.75607 12.4209 4.69548 12.1366 4.72577 11.8807C4.72577 11.8238 4.66519 11.7385 4.57431 11.7385H0.121174C0.0605873 11.7385 0 11.7954 0 11.8523V11.9376C0 14.5818 2.27201 16.7142 5.059 16.7142H12.9656C14.4264 16.7142 15.2641 15.4587 16.0917 14.2184C16.3281 13.864 16.5638 13.5108 16.8128 13.1886C17.237 12.6199 18.2972 12.165 18.6002 12.0513C18.6607 12.0229 18.691 11.9944 18.691 11.9376ZM1.21266 9.862L1.15207 9.9473C1.09149 10.0326 1.15207 10.1463 1.24295 10.1748H5.30225C5.36284 10.1748 5.39313 10.1463 5.42343 10.1179C5.48401 10.061 5.5446 9.97573 5.57489 9.89044C5.93841 9.35022 6.24134 8.75314 6.36252 8.29822C6.60486 7.21778 6.05958 5.51183 5.39313 4.11864C5.33254 4.00491 5.21137 4.00491 5.15079 4.09021L1.21266 9.862Z" fill="white"/>
</svg>
